<svg id="Camada_1" data-name="Camada 1" xmlns="http://www.w3.org/2000/svg" viewBox="0 0 461.8 107.51"><defs><style>.cls-1{fill:#eeda3d;}.cls-2{fill:#090b2d;}.cls-3{fill:#131532;}.cls-4{fill:#bab8b6;}.cls-5{fill:#e0e3df;}.cls-6{fill:#a8adba;}.cls-7{fill:#ebeaf6;}.cls-8{fill:#060a2f;}.cls-9{fill:#060930;}.cls-10{fill:#424256;}.cls-11{fill:#ebe28d;}.cls-12{fill:#e9e090;}.cls-13{fill:#f4f1c3;}.cls-14{fill:#080a31;}.cls-15{fill:#41435e;}.cls-16{fill:#08092e;}.cls-17{fill:#74776f;}.cls-18{fill:#6b6869;}.cls-19{fill:#a2a29d;}.cls-20{fill:#e7da59;}.cls-21{fill:#e5d85f;}.cls-22{fill:#04072e;}.cls-23{fill:#6a6a67;}.cls-24{fill:#dfd05c;}.cls-25{fill:#806f1d;}.cls-26{fill:#f0d93c;}.cls-27{fill:#eed83c;}.cls-28{fill:#524713;}</style></defs><title>Logo_Idealiza</title><path class="cls-1" d="M498.68,88.69a32.87,32.87,0,0,1-4.91.65c-2.31,0-3.36-1.06-1.91-3.36,2.15-1.08,4.35-1.88,6.82-1.38Z" transform="translate(-36.88 -44.74)"/><path class="cls-2" d="M395.61,145.42h-20.8c-4.21,0-5.59-2.35-3.32-6,1.42-2.31,3.22-4.38,4.86-6.56l29.12-38.92c.52-.69,1.45-1.36.87-2.35s-1.61-.65-2.5-.65c-9.21,0-18.41,0-27.62.11-2.85,0-3.73-.93-3.75-3.73s1.08-3.71,3.82-3.69c12.73.09,25.46,0,38.19,0,1.53,0,3.44-.69,4.23,1.24a5.28,5.28,0,0,1-1,5.41c-4.8,6.31-9.53,12.68-14.26,19q-9.75,13.1-19.47,26.19c-.39.51-1.15.91-.76,1.71s1.31,1.07,2.3,1.05c5.46-.07,10.91-.08,16.37-.11,5.22,0,10.45,0,15.68-.14,3.16-.1,3,1.86,3,4,.1,2.4-.48,3.47-3.2,3.4C410.16,145.31,402.88,145.43,395.61,145.42Z" transform="translate(-36.88 -44.74)"/><path class="cls-1" d="M427.73,88c.86-.53,2-.85,2.55-1.62,2.64-4,7.23-4.17,11.07-4.93,3-.6,6.15-1.69,9.24-1.55,7.37.32,14.63,1.65,20.55,6.41,3.43,2.76,6.19,6.19,5.78,11.27-.32,3.83-.05,7.71-.05,11.58a2.19,2.19,0,0,1,.11,2.08c-1.92-.07-1.58-1.63-1.65-2.73-.16-2.6.09-5.22-.09-7.82-.46-6.59-3-11.61-9.4-14.79-10.85-5.39-21.23-4-31.7.75a24.24,24.24,0,0,0-3.1,2.07c-1.26.83-2.11,1.92-1.3,3.4a3.41,3.41,0,0,0,3.59,2c2.43-.32,4.51-1.47,6.66-2.48,1.34-.63,2.63-1.48,4.08-.27l2.78,0c-2.53,1.63-5,3.46-8.19,3.42-1,.57-2,1.14-2.92,1.69-3.06,1.73-7.88.29-9.54-2.73-1.32-2.4.26-4.06,1.53-5.8Z" transform="translate(-36.88 -44.74)"/><path class="cls-3" d="M364.24,59.11a6.3,6.3,0,0,1-6,6.21A6.23,6.23,0,0,1,352,59.44a6.13,6.13,0,0,1,12.26-.33Z" transform="translate(-36.88 -44.74)"/><path class="cls-4" d="M72.92,140.58c.12,1.9.64,3.91-1.68,5-.26.12-.61.55-.57.76.77,3.93-2.11,5.05-4.82,5.61-3.54.74-7,.2-9.28-3.22-.34-1.47-.56-2.82-2-4-1.92-1.51-1.42-4.56.76-4.77C61.19,139.46,67.12,138.58,72.92,140.58Z" transform="translate(-36.88 -44.74)"/><path class="cls-5" d="M72.92,140.58,57,140.46c-1.25,0-2.57-.05-3,1.51a2.25,2.25,0,0,0,1.23,2.86c2.15.85,1.39,2.45,1.36,3.91-.81-1.26-2.25-2.81-2.36-3.7-.52-4-3.24-7.75-1.73-12,2.58-1.26,5.32-.56,8-.63,4.61-.12,9.23,0,13.84,0,2.76,3.64,2.75,3.63-.86,7.07A3.44,3.44,0,0,0,72.92,140.58Z" transform="translate(-36.88 -44.74)"/><path class="cls-6" d="M243.61,87.18l-.09.81c-1.21.93-2.15,0-3.07-.53-10.52-6.52-26.38-5.36-36.34,4.72a41.1,41.1,0,0,1-3.33,3.4.74.74,0,0,1-1-.12c-.35-1.44.89-2.25,1.33-3.37,4.33-5.19,9.93-8.12,16.44-9.78C227.09,79.89,235.79,81,243.61,87.18Z" transform="translate(-36.88 -44.74)"/><path class="cls-1" d="M427.73,88c-.5,2-2.65,3.87-.37,6.1,2.57,2.51,5.47,3.1,8.78,1.44a4.87,4.87,0,0,1,2.52-.7,8.56,8.56,0,0,1-.85,1c-4.55,4.17-7.29,4.08-11.77-.4C424,93.48,424.67,90.62,427.73,88Z" transform="translate(-36.88 -44.74)"/><path class="cls-7" d="M249,129l-4.06,0C246.26,127,247.62,126.92,249,129Z" transform="translate(-36.88 -44.74)"/><path class="cls-8" d="M336.8,94.81c0,15.45-.05,30.9,0,46.35,0,2.8-.65,4.11-3.8,4.15s-3.8-1.14-3.79-4q.11-46.35,0-92.71c0-2.64.43-3.91,3.51-3.85s4.17.76,4.14,4C336.7,64.13,336.8,79.47,336.8,94.81Z" transform="translate(-36.88 -44.74)"/><path class="cls-8" d="M313.75,141.3c0-6.47,0-12.94,0-19.41h-.84c0-7.16.24-14.32-.08-21.46a16.6,16.6,0,0,0-8.22-14.06,26.13,26.13,0,0,0-11.52-3.72,38.33,38.33,0,0,0-24.7,5.78c-1.26.79-3.57,1.85-1.72,3.86,1.29,1.41,2.08,4.62,5.45,2,5.83-4.52,12.72-5.53,20-5,8.51.62,13.56,5.43,14.24,13.9.36,4.55-.36,5.16-4.81,5-8.19-.24-16.39.08-24.27,2.49-5.52,1.68-10.71,4.5-13,10.17-5,12.73,1.93,24,16.44,25.6,9.34,1,17.9-.85,23.73-9.25a1.55,1.55,0,0,1,1.76-.74c.86.24.69,1.05.73,1.69a22.82,22.82,0,0,1,.11,3.4c-.28,3.48,1.8,3.71,4.48,3.61C314.65,145.1,313.74,143,313.75,141.3Zm-8-19.33c-.31,7.13-3.86,12.15-9.87,15.65-5.19,2.13-10.67,2.19-16,1.28A10.81,10.81,0,0,1,271,131c-1.3-4.63.56-8.4,4-11.46,6.32-4.35,13.63-4.53,20.88-5,.91,0,1.82,0,2.73,0C306.11,114.64,306.07,114.64,305.76,122Z" transform="translate(-36.88 -44.74)"/><path class="cls-9" d="M191.46,93.5c-3.76-20.34-18.2-31.79-37.25-34.07-11.07-1.32-22.26-.22-33.39-.56-2.86-.09-3.73.81-3.71,3.65.12,13.52.06,27,.06,40.57h0c0,13.64,0,27.28,0,40.91,0,2.44.54,3.55,3.23,3.37,3.28-.22,6.59,0,9.88-.06,10.29-.32,20.68.93,30.81-1.95,8.82-2.5,16.65-6.61,22.22-14.12C191.72,119.93,194,107.23,191.46,93.5Zm-20.18,38a40.11,40.11,0,0,1-20.43,7.68c-7.37.69-14.76.49-22.14.63-2.6,0-3.35-.94-3.33-3.39.08-11.14,0-22.27,0-33.41h0c0-10.91.09-21.83-.06-32.73,0-3.08.82-4.24,4-4.12,8.39.32,16.82-.33,25.14,1.39,12.9,2.68,23,9,27.56,22C186.89,103.28,184.58,121.62,171.28,131.46Z" transform="translate(-36.88 -44.74)"/><path class="cls-10" d="M251.65,132.45c1.41,1.67.29,2.89-.73,4.15-4.9,6-11.53,9-19,10.17a36.39,36.39,0,0,1-23.85-4.26c-5.27-4.06-9.64-8.85-11.76-15.29-3.67-11.1-2.95-21.75,3.47-31.76a4.85,4.85,0,0,0,.66,0c1.1,1.6-.24,2.78-.75,4.06-4.54,11.48-5.26,22.92,2,33.46,6.64,9.61,16.45,13.07,27.93,11.93,6.09-.61,11.75-2.36,16.46-6.54,4.36-3.88,4.35-4.42-.61-7.38.77-1.61,1.77-1.76,3.15-.62C249.61,131.12,250.33,132.22,251.65,132.45Z" transform="translate(-36.88 -44.74)"/><path class="cls-11" d="M89.33,81.19c1.64,6.43-.56,12.71-.73,19.08l-1.26,1.41a.68.68,0,0,1-.9,0,2.22,2.22,0,0,1-.32-1.49,9.12,9.12,0,0,1,.21-1,45.36,45.36,0,0,0,1.08-17C86.34,71.85,79.9,65.52,71.23,61a12.24,12.24,0,0,0-8.29-1.14c-4.5,1-8.83,1.65-12.75,4.93A30.59,30.59,0,0,0,40.1,81.29c-2.83,9.91.91,17.91,6.25,26.14,3.71,5.7,8.61,11.48,7.8,19.25-2.31.6-1.53-1.67-2.32-2.49-1.71-7.74-6.89-13.6-10.88-20.09-3.59-5.83-4.42-12.29-4-18.86.64-9.08,4.73-16.5,11.64-22.49a18.28,18.28,0,0,1,7.26-4.08c9.44-3.9,17.49-1.18,24.67,5.3A32,32,0,0,1,85.9,69.6h0a23.44,23.44,0,0,1,3.43,11.58Z" transform="translate(-36.88 -44.74)"/><path class="cls-12" d="M86.56,101.64l.78,0c0,.44,0,.88-.07,1.32a30.23,30.23,0,0,1-4,6.51,42.36,42.36,0,0,0-7.37,15.6A3.38,3.38,0,0,1,75,126.9c-.32,2.62-1.77,3.57-4.41,3.47-4.18-.17-8.37,0-12.56,0-5.06,0-5.87-.84-6.2-6.14l2,2.71c5.38,2.13,11,.88,16.48.95,1.59,0,2.34-1.34,2.6-2.75.94-5,3.18-9.31,5.75-13.67,1.47-2.48,2.85-5.06,4.49-7.46C84,102.79,84.71,101.35,86.56,101.64Z" transform="translate(-36.88 -44.74)"/><path class="cls-13" d="M75,126.9c.56-6.37,3.66-11.69,7-16.86,1.6-2.44,3.47-4.7,5.22-7-.58,3-2.37,5.6-4.08,7.93a32.53,32.53,0,0,0-6.27,13.91C76.75,125.81,76.3,126.83,75,126.9Z" transform="translate(-36.88 -44.74)"/><path class="cls-13" d="M85.9,69.6c-3.46-2.35-5.73-6-9.37-8.23-5.91-3.68-11.87-5.31-18.61-2.83a7.09,7.09,0,0,1-2,.13c3-2.45,6.89-2.8,10.06-2.41,8.26,1,14.6,5.94,19.75,12.36C85.89,68.85,85.84,69.27,85.9,69.6Z" transform="translate(-36.88 -44.74)"/><path class="cls-13" d="M89.33,81.19c-.64-4-2.19-7.75-3.43-11.58C89.26,72.81,89.47,77,89.33,81.19Z" transform="translate(-36.88 -44.74)"/><path class="cls-14" d="M92.11,103c0-13.42.15-26.84-.1-40.25-.08-3.91,2-3.74,4.63-3.91,3.1-.2,3.8,1.08,3.79,4q-.15,40.26,0,80.5c0,3.59-1.41,4-4.42,4s-4-.85-4-4.1C92.23,129.86,92.11,116.44,92.11,103Z" transform="translate(-36.88 -44.74)"/><path class="cls-15" d="M362.1,114.6c0,9.08-.06,18.16,0,27.24,0,2.51-.49,3.88-3.37,3.67-2.49-.19-5,.45-5-3.59q.19-27.4,0-54.82c0-3.62,2.07-3.56,4.65-3.68,3-.14,3.68,1.35,3.66,3.94C362.07,96.44,362.1,105.52,362.1,114.6Z" transform="translate(-36.88 -44.74)"/><path class="cls-1" d="M476.83,111.25c-1.18,7.94.5,15.89,0,23.83,1.34,2.57.43,5.34.46,8,0,2.29-2.33,3.17-4.42,3.52a4,4,0,0,1-4.46-2.34c-1.69-3.16-2.31-3.39-5-1.19-3.47,2.84-7.52,3.87-11.83,4.31h0a42.3,42.3,0,0,1-16.93-2.1,2.35,2.35,0,0,1-1.49-1.28c1.54-1.24,3.06-.1,4.6,0,.84.25,1.67.52,2.5.82a11.46,11.46,0,0,0,8.09.51c6.21-.56,11.67-2.51,15.68-7.71,1.79-2.32,3.51-2,5.22.31.27.37.46.78.7,1.17.79,1.28,1.11,3.45,3.22,2.78,2-.62,1.36-2.67,1.34-4.16-.08-6.35,0-12.69-.43-19-.34-4.8,0-9.7-.19-14.57a37.6,37.6,0,0,0-1.45-8.69,11.45,11.45,0,0,0-6.61-7.77c-6.75-3-13.74-4.77-21.13-2.7-3.58,1-7.44,1.26-10.56,3.6-.94.72-2.52,1.36-1.76,2.84s2.21.67,3.38.36a16.88,16.88,0,0,0,3.1-1.39,27.1,27.1,0,0,1,19.59-1.63c5.26,1.43,9.5,4.29,11.09,10,.09,1.58.1,3.16,0,4.74-.14,4.18-1.84,5.81-6.1,6s-8.58-.36-12.84.36c-2,.32-3.89.8-5.88,1a3.43,3.43,0,0,1-2.76-.93c.78-1.53,2.22-1.27,3.57-1.36,5.87-.38,11.75-.61,17.59-1.26,4.65-.52,6.55-5.1,4.05-9.32-2.9-4.9-7.75-7-13-7.67-3.3-.41-7.05-1.31-10.17,1.19-2.33-.22-4,1.45-5.93,2.17-2.75,1-5.55,3.1-8.43.2-1.93-1.94-1.88-3.76.27-5.46,4.74-3.77,10.44-5.08,16.17-6.44,8.45-2,16,.91,23,4.72,4.37,2.37,6.41,7.4,7,12.56C476.62,103.17,475.43,107.28,476.83,111.25Z" transform="translate(-36.88 -44.74)"/><path class="cls-1" d="M438,144.64l-4.79-.68c-4.61-2.81-8.14-6.34-8.17-12.2,0-1.48.09-3,0-4.42-.71-7.81,4-12,10.12-15.26,2.13-1.12,4.2-2.83,6.93-2.26l2.81.05c0,1.5-1.34,1.24-2.21,1.58a42.53,42.53,0,0,0-9.13,4.42c-5,3.53-7.72,8.46-6.77,14.51.87,5.55,3.71,10.18,9.52,12.18C437.19,142.89,438.23,143.25,438,144.64Z" transform="translate(-36.88 -44.74)"/><path class="cls-16" d="M243.52,88c-4.4-2.57-8.93-4.74-14.14-5.24-12-1.16-21.8,2.7-28.9,12.69a41.37,41.37,0,0,0-4,28.15,27,27,0,0,0,7.7,14c12.13,11.67,33.77,11,44.58-.41,1-1,2.89-2.2,2-3.51-1.06-1.55-2.55-3.61-5.19-2.72-2.19,3.3-5.36,5.29-8.93,6.77-1.08,1.18-2.91.3-4,1.46-6,1.07-12,1.4-17.76-1.32a2.9,2.9,0,0,1-2.08-1.41,9.68,9.68,0,0,1-4.71-4.13,28.71,28.71,0,0,1-5.3-11.26c-.85-4.33-.48-4.9,4.08-4.9,14.76,0,29.52,0,44.28.07,2.5,0,3.33-.7,3.32-3.29C254.39,103,251.21,94.55,243.52,88Zm2.76,20.53c-1.47,2.44-5,1.07-7.65,1-4.77-.12-9.53-.1-14.29.13-6.35,0-12.69,0-19,0-2,0-3.38-.69-2.61-3.13,2.74-8.56,8.07-14.94,17-16.87,10.51-2.29,19.7,1.9,24.57,10.36C245.72,102.58,247.92,105.78,246.28,108.52Z" transform="translate(-36.88 -44.74)"/><path class="cls-10" d="M232.61,139.2c-4.72,2.4-14.22,1.7-17.76-1.32C220.66,139.82,226.64,139.37,232.61,139.2Z" transform="translate(-36.88 -44.74)"/><path class="cls-10" d="M245.54,131c-1.72,3.91-4.83,6-8.93,6.77A55.51,55.51,0,0,0,245.54,131Z" transform="translate(-36.88 -44.74)"/><path class="cls-10" d="M212.77,136.47c-2.62-.18-4-1.78-4.71-4.13Z" transform="translate(-36.88 -44.74)"/><path class="cls-1" d="M446.09,63.53a2.15,2.15,0,0,1,1.46-2.44,2.26,2.26,0,0,1,2.85,1.76c.69,2.37,1.59,4.65,2.47,7a2.13,2.13,0,0,1-.7,2.74c-1.25.73-2-.43-2.43-1.18A30,30,0,0,1,446.09,63.53Z" transform="translate(-36.88 -44.74)"/><path class="cls-1" d="M480.68,64.84c2.08-.11,2.74.83,2,2.3a33.14,33.14,0,0,1-5,8c-.89,1-1.85,1.73-3.2.6s-.84-2.11.22-3.08c1.46-1.34,1.93-3.27,2.81-5C478.32,66.27,479.26,65.1,480.68,64.84Z" transform="translate(-36.88 -44.74)"/><path class="cls-17" d="M63.54,144c-2.26,0-4.52,0-6.78,0-.83,0-1.72-.23-1.78-1.17a1.52,1.52,0,0,1,1.65-1.73q7.11,0,14.22,0a1.26,1.26,0,0,1,1.41,1.49c-.07,1-.74,1.34-1.61,1.35-2.37,0-4.74,0-7.11,0Z" transform="translate(-36.88 -44.74)"/><path class="cls-18" d="M59.83,147.25c2.58,0,5.17,0,7.75,0,.63,0,1.48-.21,1.69.68s-.48,1.21-1,1.62c-3,2.41-6.45,2.32-9.53-.27-.54-.45-1.62-.76-1-1.79C58.16,146.67,59,146.81,59.83,147.25Z" transform="translate(-36.88 -44.74)"/><path class="cls-19" d="M74.29,137.11a1.7,1.7,0,0,1-1.76,1.31c-5.74,0-11.49.27-17.22-.4-1.42-.17-2.84-.43-2.74-2.27s1.45-2.68,3.25-2.65c5.52.09,11.06-.36,16.57.51,2.25.36,3.44,1.14,1.9,3.49a4.39,4.39,0,0,0-3.57-1.63,133.84,133.84,0,0,0-14.16.28c4.28.49,8.57.32,12.86.4C71.09,136.18,72.85,135.88,74.29,137.11Z" transform="translate(-36.88 -44.74)"/><path class="cls-20" d="M39.51,81.17A26.26,26.26,0,0,1,65.18,58.71C74.69,58.58,88.54,71.08,88,81.85c1.15,6.27-.65,12.32-1.36,18.45h0c-1.85,2.13-3.66,4.31-6.83,4.36-11,.58-22,0-33,0a4.53,4.53,0,0,1-4.67-4.06c-.5-2.47-2.62-4.23-2.88-6.78-.14-1.34-.62-2.66-.15-4,.35-.6.81-.76,1.34-.23a6,6,0,0,1,1.22,2.77c.27.93.06,2.34,1.28,2.52s1.5-1.2,2.11-2c2.33-2.94,5.06-5.52,7.52-8.35,2.19-2.53,6.47-3,9.44-1.35.89.49,1.68,1.16,2.62,1.58,2.4,1,4.75,1.94,6.32-1.27.19-.4.7-.54,1.16-.65,2.22.69,2.44,2.11,1.36,3.92-.53.87-1.3,1.57-1.89,2.41a4.64,4.64,0,0,1-.68.72c-5.45,4.33-5.45,4.33-10-1-2.92-3.43-3.8-3.65-7-.5-2.42,2.35-4.62,5-7,7.43-.78.83-1.59,1.9-.2,2.85,1.12.77,2.33.94,3.23-.46a4.26,4.26,0,0,1,.41-.54c4.17-5,7.27-7.78,13-.31,1.55,2,3.09,1.47,4.6.12,2.27-2,4.33-4.32,6.54-6.44,2-1.92,4.23-2.5,6.79-1.15.66,2.47-1.3,3-2.85,3.85-1.39.75-3.06,1.27-2.44,3.44a5.15,5.15,0,0,0,5.56,3.49c2.11-.23,2.91-1.44,2.83-3.46a11.13,11.13,0,0,1,.18-2.7,5.53,5.53,0,0,1,.25-1q3.89-9.35-2.48-17.19A6.93,6.93,0,0,1,81.1,74C79,67,72.7,62.6,65.46,62.23c-11.62-.6-17.69,7.07-22.91,17.42-.75,1.49-.59,3.77-3.21,3.55A2.28,2.28,0,0,1,39.51,81.17Z" transform="translate(-36.88 -44.74)"/><path class="cls-21" d="M39.53,89.37c-.28,3.46.11,6.72,2.77,9.32.82.79.46,1.92.75,2.86a3,3,0,0,0,3.36,2.18c.17,1.89,1.37,2.38,3.05,2.39,9.21,0,18.41,0,27.62,0a2.92,2.92,0,0,0,3.23-2.35c2.75,0,4.09-2.53,6.3-3.48,0,.45,0,.89,0,1.34C84,104.46,81,107,80.31,111.13c-.33,1.92-2.63,2.66-3.34,4.58-1.23,3.36-2.85,6.58-3.29,10.19C73.42,128.12,72.15,129,70,129c-4.42,0-8.83,0-13.25,0-1.49,0-2.74-.23-2.91-2a35.42,35.42,0,0,0-5.33-14c-4.18-6.24-8.65-12.48-10-20.15-.68-3.9-.92-7.84,1-11.56l0,2.08A5,5,0,0,1,39.53,89.37Z" transform="translate(-36.88 -44.74)"/><path class="cls-21" d="M86.61,100.3c-.69-6.24,2.17-12.21,1.36-18.45A32,32,0,0,1,86.61,100.3Z" transform="translate(-36.88 -44.74)"/><path class="cls-22" d="M355.35,114.58q0-13.11,0-26.21a3.49,3.49,0,0,1,4.55-3.55c1.57.48,1,1.86,1,2.89,0,7.6,0,15.2,0,22.8,0,10.32,0,20.64,0,31,0,1.86,0,3.24-2.6,3.2-2.45,0-3.05-.92-3-3.22C355.41,132.5,355.34,123.54,355.35,114.58Z" transform="translate(-36.88 -44.74)"/><path class="cls-1" d="M475,119.21c-.35-5.44,0-11-.29-16.51-.34-7.16-2.23-13.57-9.76-16.77-1.54-.66-3.09-.38-4.57-1-9.12-3.87-17.7-1-26.1,2.45-1.73.72-4.67,1.89-3.37,4.57,1.5,3.08,4.16.69,6.33.41.1,0,.18-.12.28-.18a24.61,24.61,0,0,1,16.3-3.43c6.43.69,12,3,14.82,9.49.71,1.86.3,3.8.32,5.7,0,3.59-1.28,4.8-4.87,4.91-4.62.14-9.26-.39-13.88.31l-5.42.72c-3.28.41-5.95,2.4-9,3.52-5.35,2-8.31,6.48-10,11.47-2,5.87,2.86,15.61,8.29,18.14,1.25.59,3.1-.2,3.81,1.64.5.77,1.31.63,2.05.68a12.14,12.14,0,0,0,8.18.69c6.64-.06,12.34-2.06,16.33-7.75,1.59-2.25,3.06-2,4.23.44a20.43,20.43,0,0,1,1.24,2.79,2.23,2.23,0,0,0,2.17,1.78c2.23.2,3.48-.54,3.35-3C475.13,133.25,475.49,126.24,475,119.21Zm-6.06.58c-.68,2.88-.53,5.85-1.33,8.7-1.68,6-6.62,8.21-11.71,10.29a3.91,3.91,0,0,0-.91.41,26,26,0,0,1-13.53,0,9.33,9.33,0,0,1-6.27-4.13,18.28,18.28,0,0,0-1.44-2.64c-2.11-3.31-1.43-7.31,1-10.31,4.48-5.45,10.63-7,17.12-7.81a84.28,84.28,0,0,1,12.21-.38C468.12,114,469.87,116,469,119.79Z" transform="translate(-36.88 -44.74)"/><path class="cls-1" d="M468.67,98.23c1.36,2.68.86,5.56.4,8.26-.31,1.84-2.08,2.75-4.19,2.7-4.88-.09-9.76,0-14.64,0,3.49-1.5,7.14-.64,10.69-.59,6.94.09,8.12-.73,7.74-8C468.63,99.82,468.67,99,468.67,98.23Z" transform="translate(-36.88 -44.74)"/><path class="cls-1" d="M440,145.32a30,30,0,0,0,8.18.69C445.36,147,442.58,147.44,440,145.32Z" transform="translate(-36.88 -44.74)"/><path class="cls-23" d="M74.29,137.11c-5.9,0-11.8,0-17.71,0-1,0-2.58.51-2.65-1.23-.08-2,1.65-1.45,2.76-1.46,4.88-.05,9.76,0,14.64-.05,2,0,3,.67,3,2.71Z" transform="translate(-36.88 -44.74)"/><path class="cls-1" d="M39.53,89.37c0-2,0-4.08,0-6.12a3.12,3.12,0,0,0,1.77-2.37c1.42-7.14,6.82-11.65,11.44-16.43,4.93-5.1,18.7-3.83,24.51,1.64,2.29,2.15,4.8,4.23,4.63,7.88,0,1,.84,1.55,1.42,2.23,4.41,5.17,5.1,11.67,1.93,18-.91-2.29-.91-2.29,0-5.35-1.55,1.56-1.86,3.52-2.81,5.13s-1.88,3.19-4.24,2.65a3.56,3.56,0,0,0,2,2c1.7,1,3,1.14,3.06-1.51,0-1.29.1-2.79,2-2.9,0,.9,0,1.81,0,2.71,0,3.84-1,4.9-4.69,4.8-2.72-.08-6-3.11-5.77-5.5C75,94.38,76.5,93.62,78,93.07s3-1,3.16-3a5,5,0,0,1,1.12-3c1.65-1.79,1.53-3.59.06-5.41a6,6,0,0,1-.44-.83c-.53-2.19-2-2.58-4.06-2.39-2.4.23-4.45.65-4.78,3.55a2.35,2.35,0,0,1-.76,1.21c-.1,0-.23.08-.29.16-3,4-5.28,4.28-9.64,1.14A7.05,7.05,0,0,0,52,86.34c-2.39,3.44-5.9,5.86-8.08,9.54-1.22,2.08-2.21,0-2.67-1.15C40.55,93,41,90.89,39.53,89.37Z" transform="translate(-36.88 -44.74)"/><path class="cls-24" d="M82.53,87.32a3.93,3.93,0,0,1-1.4,2.75c-3.1-.57-5.44.55-7.44,2.94a60.23,60.23,0,0,1-5.28,5.32c-2.2,2-3.84,1.64-5.82-.54S59,92.38,55.4,94a10.23,10.23,0,0,0-4.73,4.75c-1.42,2.87-3.4,1.49-4.8.65-1.83-1.08-1-2.84.26-4,3.44-2.92,5.72-7,9.61-9.5,1.75-1.14,2.87-.63,4.12.39A11.15,11.15,0,0,1,61.06,88c1.38,1.64,2.49,4,4.26,4.71,2.14.92,2.79-2.41,4.64-3.1a4.17,4.17,0,0,1,1-.14c-.26,2.72-2.47,3.92-4.35,5.25-1.3.91-2.36-.26-3.15-1.21a54.68,54.68,0,0,0-4.33-4.8c-1-1-2.11-1.44-3.27-.35a96.38,96.38,0,0,0-8.57,8.75c1.73.4,2.46-.54,3.22-1.19A44.69,44.69,0,0,0,55,91.22c1.46-1.67,3-1.87,4.53,0,1.26,1.62,2.93,2.87,4.09,4.55,1.44,2.05,2.71,1.83,4.4.23,2.21-2.12,4.46-4.2,6.55-6.43,1.1-1.17,2.08-2.34,3.94-2.29,2.11,0,1.78-1.61,1.8-2.94A2.1,2.1,0,0,0,78,82.05c-1.67-.07-2.41.51-2.5,2.34-.12,2.78-1.77,4.49-4.53,5-.13-1.18.67-1.89,1.43-2.55,1.54-1.31,1.21-2.48-.13-3.65,0-.46,0-.91,0-1.36,2.66-3.9,7.39-4.22,10.22-.68h0A5.82,5.82,0,0,1,82.53,87.32Z" transform="translate(-36.88 -44.74)"/><path class="cls-25" d="M80.31,103.78c1.45,2.11,1.21,3.37-1.66,3.37-10.19,0-20.38,0-30.57,0-1,0-2.13.11-2.75-.93-.75-1.25.43-1.78,1.08-2.49Z" transform="translate(-36.88 -44.74)"/><path class="cls-26" d="M64.18,126.9c-7.53,0-8-.32-9.68-7.77-.42-1.82-2.14-2.58-3.11-3.94s-2.59-2.72-1.58-4.45,3.09-1.45,4.85-.76c2.12.85,4.14.39,6.29,0,4.25-.88,8.62-.64,12.94-.69a2.17,2.17,0,0,1,2.19,1.81c.21,1.06-.74,1.61-1.5,2-1.88,1.06-3,2.16-.87,4.07.6.53.44,1.17,0,1.82a11.92,11.92,0,0,0-1.33,2.36C70.22,126.88,70.24,126.89,64.18,126.9Z" transform="translate(-36.88 -44.74)"/><path class="cls-1" d="M455,139.19a39.66,39.66,0,0,1,4.59-2.8,13.13,13.13,0,0,0,8.21-11.5c.71-8.35,3.72-10.73-8.54-10.37a69,69,0,0,0-16,2.15c-5.62,1.5-10.5,7.84-10.1,12.81.17,2.14,2.39,3.38,2.07,5.61-7.6-8.61-1.2-15.18,6.68-18.8,7.27-3.34,15.39-3.21,23.32-3,2.81.08,4.91,2.22,4.5,4.59-.9,5.13-.56,10.63-3.62,15.29C463.47,137.2,459.14,138,455,139.19Z" transform="translate(-36.88 -44.74)"/><path class="cls-27" d="M85.23,94.15A3.39,3.39,0,0,0,84,97.78c.83,3-1.32,2.67-2.9,2.32a8.06,8.06,0,0,1-3.1-2c-.7-.6-2-1.22-1.26-2.44s1.41-.13,2.15.24c1.2.59,1.49-.6,2-1.23,1.66-1.91,1.7-4.66,3.47-6.52.52-.54.77-1.64,1.72-1.11.69.39.33,1.25,0,1.82-1,1.64-.92,3.45-.89,5.25Z" transform="translate(-36.88 -44.74)"/><path class="cls-20" d="M82.5,81.19c-3.48-2.18-6.78-2-10.22.68.75-3.61,2.48-4.76,7.32-4.52C81.9,77.46,82.48,79.19,82.5,81.19Z" transform="translate(-36.88 -44.74)"/><path class="cls-20" d="M82.53,87.32l0-6.12C85.13,83.91,85.13,85.08,82.53,87.32Z" transform="translate(-36.88 -44.74)"/><path class="cls-28" d="M71,89.43c2-1.76,4.92-2.94,3.45-6.69-.43-1.09,1.11-1.57,2.16-1.49,1.59.13,3.7-.8,4.48,1.36a8.5,8.5,0,0,1-.07,5c-.14.55-.69,1.17-1.24.85-2.83-1.63-3.78.9-5.21,2.27C72.24,93,70,95.25,67.76,97.48c-1.46,1.43-2.75,1.69-4.24-.17-1.88-2.37-3.75-5.93-6.13-6.39s-4,3.79-6.38,5.48c-1.35,1-2.62,3.76-4.3,2.08s1-3,2.09-4.26c2-2.18,4.25-4.11,6.23-6.3s3.35-1.84,4.93.26c1.16,1.53,2.52,2.92,3.65,4.47,1.33,1.83,2.6,2.42,4.24.35,1-1.24,2.07-2.39,3.12-3.57Z" transform="translate(-36.88 -44.74)"/></svg>